<?xml version="1.0" encoding="utf-8"?>
<!-- Generator: Adobe Illustrator 27.3.1, SVG Export Plug-In . SVG Version: 6.00 Build 0)  -->
<svg version="1.1" id="Layer_1" xmlns="http://www.w3.org/2000/svg" xmlns:xlink="http://www.w3.org/1999/xlink" x="0px" y="0px"
	 viewBox="0 0 540 83" style="enable-background:new 0 0 540 83;" xml:space="preserve">
<style type="text/css">
	.st0{fill:#FFFFFF;}
</style>
<path class="st0" d="M47.7,36.6c-3-7.3,5.9-28.1,25.6-29.6c20.8-1.6,37.8,16.9,37.8,37.8c0,20.9-19.1,37.8-40,37.8
	c-8,0-19.8-2.5-25.9-6.8l-45.1-31l28.6-17.2c0,0-6.7,41.7,29.5,50.1c7.2,1.7,41.6,0.3,38.6-31.6C96.4,41.6,85.8,11.2,47.7,36.6z"/>
<path class="st0" d="M93.8,46.4c3,7.3-5.9,28.1-25.6,29.6c-20.8,1.6-37.8-16.9-37.8-37.8c0-20.9,19.1-37.8,40-37.8
	c8,0,19.8,2.5,25.9,6.8l45.1,31l-28.6,17.2c0,0,6.7-41.7-29.5-50.1C76,3.7,41.6,5.1,44.6,37C45,41.4,55.7,71.8,93.8,46.4z"/>
<path class="st0" d="M270.5,67.6c-0.5,2.1-1.1,5.8-2,11.3c-3.8,0.8-7,1.4-9.7,1.6c-2.6,0.3-5.3,0.4-7.9,0.4c-4.6,0-8.8-0.5-12.5-1.4
	c-3.6-0.9-6.8-2.6-9.6-5c-2.8-2.5-4.8-5.5-6.1-9.1c-1.3-3.6-2-7.3-2-11.3c0-4.4,0.8-8.6,2.3-12.6c1.5-4.1,3.6-7.4,6.4-10
	c2.8-2.6,5.9-4.5,9.4-5.5c3.5-1.1,7.2-1.6,11-1.6c3.6,0,7,0.5,10.3,1.4c3.3,0.9,6,2.4,8.2,4.4c2.2,2.1,3.9,4.5,5.1,7.4
	c1.2,2.9,1.8,6.1,1.8,9.6c0,1.7-0.2,3.4-0.5,5.1l-38.9,0.1c-0.1,1.3-0.1,2.4-0.1,3.1c0,2.4,0.4,4.5,1.2,6.5c0.8,2,2,3.7,3.6,5
	c1.6,1.4,3.4,2.4,5.6,3.1c2.2,0.6,4.3,1,6.4,1c2.4,0,5.1-0.3,7.9-0.8C263.1,69.7,266.5,68.8,270.5,67.6z M236.2,46.1l24.8,0.1
	c0-1.7-0.1-3-0.2-3.8c-0.1-0.8-0.4-1.7-0.7-2.8c-0.4-1.1-0.8-2-1.5-2.8c-0.6-0.8-1.4-1.5-2.2-2c-0.8-0.5-1.8-0.9-3-1.2
	c-1.1-0.3-2.3-0.4-3.6-0.4c-1.5,0-2.9,0.2-4.4,0.7c-1.4,0.5-2.7,1.1-3.8,2c-1.2,0.9-2.1,1.9-2.9,3c-0.7,1.1-1.2,2.2-1.6,3.2
	C236.9,43.1,236.5,44.4,236.2,46.1z"/>
<path class="st0" d="M283.2,79.6l1.5-25.2l0.4-14.7c0.1-3,0.1-6,0.1-9.1c0-0.5,0-2.2-0.1-5c3.3,0.1,5.7,0.1,7.3,0.1
	c1.8,0,4.2,0,7.2-0.1l-0.3,7.5c1.3-1.9,2.5-3.3,3.5-4.2c1-1,2-1.8,3.2-2.4c1.2-0.7,2.5-1.2,4-1.5c1.5-0.4,2.9-0.5,4.5-0.5
	c1.4,0,2.9,0.2,4.4,0.5c0,3.3,0.2,7.5,0.5,12.5c-2.1-0.6-4-0.8-5.7-0.8c-2.1,0-3.9,0.3-5.5,1c-1.6,0.6-3,1.5-4.2,2.8
	c-1.2,1.2-2.3,2.8-3.1,4.6c-0.7,1.5-1.2,3.4-1.5,5.8c-0.3,1.8-0.5,5-0.7,9.4c-0.2,4.5-0.3,8.8-0.3,13.2c0,1.7,0.1,3.8,0.2,6.3
	c-2.7-0.1-5.1-0.1-7.4-0.1C288.8,79.5,286.2,79.5,283.2,79.6z"/>
<path class="st0" d="M324,78.6l-1.2-11.7c3.5,1.4,6.4,2.4,8.8,3c2.4,0.5,4.6,0.8,6.6,0.8c2,0,3.7-0.2,5.1-0.7
	c1.4-0.5,2.4-1.2,3.1-2.1c0.7-1,1-1.9,1-3c0-0.5-0.1-0.9-0.2-1.3c-0.1-0.4-0.2-0.8-0.5-1.2c-0.2-0.4-0.5-0.8-0.8-1.2
	c-0.3-0.4-0.7-0.8-1.2-1.3c-0.5-0.5-1.3-1.1-2.3-1.9l-2.9-2.3c-2.8-2.2-4.9-3.9-6.3-5.1c-1.5-1.2-2.7-2.5-3.7-3.8
	c-1-1.3-1.8-2.7-2.3-4.1c-0.5-1.5-0.7-2.9-0.7-4.4c0-2.6,0.8-5,2.3-7.4c1.6-2.3,3.9-4,6.9-5.1c3-1.1,6.5-1.6,10.6-1.6
	c4.6,0,10,0.5,16,1.6l0.7,11.1c-4.1-1.7-8.1-2.5-11.8-2.5c-2.1,0-3.9,0.2-5.4,0.6c-1.5,0.4-2.6,1-3.3,1.9c-0.7,0.8-1,1.7-1,2.8
	c0,0.6,0.1,1.2,0.3,1.8c0.2,0.6,0.6,1.2,1.1,1.8c0.5,0.6,1.1,1.2,1.8,1.8c0.7,0.6,2.2,1.7,4.4,3.3c2.2,1.7,4.1,3.2,5.7,4.5
	c1.7,1.3,3,2.7,4.1,4.1c1.1,1.3,1.9,2.8,2.4,4.4s0.8,3.1,0.8,4.7c0,2.7-0.8,5.1-2.4,7.4c-1.6,2.3-4.1,4-7.4,5.3
	c-3.3,1.3-7,1.9-11,1.9c-2.1,0-4.7-0.2-7.8-0.5C330.8,80,327.5,79.5,324,78.6z"/>
<path class="st0" d="M376,16.4c0.1-3.6,0.2-6.4,0.2-8.4V6.3c3.2,0.1,5.8,0.1,7.9,0.1c2.8,0,5.3,0,7.7-0.1c-0.1,0.9-0.2,1.9-0.2,3
	l-0.3,7.1c-2.7-0.1-5.2-0.1-7.4-0.1C381.6,16.3,379,16.3,376,16.4z M373.1,79.6c0.5-5.3,0.9-9.8,1.1-13.3c0.4-5.7,0.7-12.2,0.9-19.6
	c0.3-7.4,0.5-14.4,0.6-21.1c3.5,0.1,6.1,0.1,7.8,0.1c1.6,0,4.2,0,7.8-0.1c-0.5,6.2-0.9,12-1.2,17.6c-0.3,5.6-0.5,12-0.6,19.2
	c-0.1,7.2-0.2,12.9-0.2,17.1c-3.2-0.1-5.8-0.1-7.8-0.1C379.6,79.5,376.8,79.5,373.1,79.6z"/>
<path class="st0" d="M416.6,79.6c-2.3-7.5-8.6-25.5-18.8-54c3.1,0.1,5.8,0.1,8.1,0.1c2.4,0,4.9,0,7.4-0.1l12.4,40.5l1.7-4.6
	l11.9-30.3c0.6-1.4,1.3-3.3,2.1-5.6c2.9,0.1,5.5,0.1,7.8,0.1c2.3,0,4.9,0,7.9-0.1l-8.7,18.7l-12.5,28.4l-2.8,6.8
	c-3.2-0.1-5.9-0.1-8-0.1C422.7,79.5,419.9,79.5,416.6,79.6z"/>
<path class="st0" d="M463.6,16.4c0.1-3.6,0.2-6.4,0.2-8.4V6.3c3.2,0.1,5.8,0.1,7.9,0.1c2.8,0,5.3,0,7.7-0.1c-0.1,0.9-0.2,1.9-0.2,3
	l-0.3,7.1c-2.7-0.1-5.2-0.1-7.4-0.1C469.2,16.3,466.6,16.3,463.6,16.4z M460.7,79.6c0.5-5.3,0.9-9.8,1.1-13.3
	c0.4-5.7,0.7-12.2,0.9-19.6c0.3-7.4,0.5-14.4,0.6-21.1c3.5,0.1,6.1,0.1,7.8,0.1c1.6,0,4.2,0,7.8-0.1c-0.5,6.2-0.9,12-1.2,17.6
	c-0.3,5.6-0.5,12-0.6,19.2c-0.1,7.2-0.2,12.9-0.2,17.1c-3.2-0.1-5.8-0.1-7.8-0.1C467.2,79.5,464.4,79.5,460.7,79.6z"/>
<path class="st0" d="M493.8,37.5c0.5-2.5,0.8-4.3,0.9-5.4c0.1-1,0.4-2.6,0.7-4.7c4.8-1.1,9.1-1.9,12.7-2.4c3.7-0.5,7.2-0.7,10.7-0.7
	c3.9,0,7.5,0.5,10.7,1.4c3.3,0.9,5.8,2.3,7.6,4.3c1.8,2,2.8,4.8,2.8,8.5c0,2-0.3,7.2-0.9,15.4c-0.6,8.2-0.9,16.8-1,25.6
	c-2.7-0.1-5.2-0.1-7.4-0.1c-2.2,0-4.7,0-7.6,0.1c0.5-4.3,0.8-9.2,1.1-14.9l0.7-13.2c-1.3,0.9-2.4,1.5-3.1,1.9
	c-0.7,0.4-1.5,0.7-2.4,1c-0.9,0.3-2.4,0.7-4.7,1.4c-2.2,0.6-4,1.1-5.4,1.6c-1.3,0.5-2.6,1-3.7,1.6c-1.1,0.6-2,1.2-2.7,2
	c-0.7,0.7-1.3,1.5-1.6,2.3c-0.3,0.8-0.5,1.6-0.5,2.5c0,1.5,0.4,2.8,1.3,3.9c0.9,1.1,2,1.8,3.3,2.2c1.3,0.4,2.8,0.6,4.6,0.6
	c1.1,0,2.3-0.1,3.6-0.3c1.3-0.2,3-0.6,5.1-1.3c-0.7,2-1.6,5-2.6,9c-2.5,0.4-4.5,0.7-6,0.8c-1.5,0.1-2.9,0.2-4.1,0.2
	c-4.5,0-8.1-0.6-11-1.8c-2.9-1.2-5-3.1-6.4-5.7c-1.3-2.6-2-5.3-2-7.9c0-1.5,0.3-3,0.8-4.5c0.5-1.5,1.3-2.8,2.3-4.1
	c1-1.2,2.4-2.4,4-3.6c1.6-1.2,4-2.3,7.1-3.3c3.1-1.1,7.1-2.2,12.2-3.3c1.3-0.3,2.7-0.6,4.2-1c1.5-0.4,2.6-0.8,3.5-1.2
	c0.9-0.4,1.6-0.9,2.3-1.5c0.6-0.6,1.1-1.3,1.4-2c0.3-0.7,0.5-1.4,0.5-2.1c0-1.4-0.5-2.5-1.4-3.5c-0.9-1-2.1-1.6-3.5-2
	c-1.4-0.4-3-0.6-4.7-0.6C508.7,32.8,501.6,34.4,493.8,37.5z"/>
<path class="st0" d="M162,78l1-13.1l1.4-29l0.7-21.1c0-1.9,0.1-3.9,0.1-5.8c0-1.4,0-3.6-0.1-6.5c4.7,0.1,8.6,0.1,11.5,0.1
	c2.4,0,5.6-0.1,9.8-0.2c4.2-0.1,7.5-0.2,10-0.2c5.1,0,8.8,0.4,11.2,1.1c2.5,0.8,4.8,2.1,6.7,3.8c1.9,1.7,3.4,3.8,4.4,6.3
	c1.1,2.7,1.7,5.7,1.7,8.8c0,4.8-1.2,9.1-3.6,13c-2.4,3.9-5.6,6.8-9.8,8.7c-4.2,1.9-8.9,2.9-14,2.9c-2.5,0-5.2-0.3-8-0.8
	c-0.8-3.8-1.7-7.4-2.8-10.8c2.3,0.5,4.6,0.7,6.8,0.7c3.1,0,5.7-0.5,8-1.4s4-2.4,5.4-4.5c1.3-2.1,2-4.5,2-7.1c0-1.5-0.3-3-0.8-4.3
	s-1.4-2.3-2.4-3.1c-1-0.8-2.2-1.3-3.5-1.5c-1.3-0.3-3.1-0.4-5.4-0.4c-2.1,0-4.1,0-6.3,0.1c-2.1,0.1-4,0.1-5.6,0.1
	c-0.4,7.2-0.8,14.1-1,20.7l-0.7,21.1c-0.2,7.5-0.3,13-0.3,16.5c0,1.3,0,3.2,0.1,5.8l-8-0.1C169.2,77.9,166.5,77.9,162,78z"/>
</svg>
